<mxfile host="65bd71144e">
    <diagram id="FszsQHRk5S9cGY1yYXsN" name="Page-1">
        <mxGraphModel dx="1429" dy="1020" grid="1" gridSize="10" guides="1" tooltips="1" connect="1" arrows="1" fold="1" page="1" pageScale="1" pageWidth="1169" pageHeight="827" math="0" shadow="0">
            <root>
                <mxCell id="0"/>
                <mxCell id="1" parent="0"/>
                <mxCell id="12" value="Strategy" style="swimlane;whiteSpace=wrap;html=1;" vertex="1" parent="1">
                    <mxGeometry x="410" y="30" width="160" height="90" as="geometry"/>
                </mxCell>
                <mxCell id="13" value="compute" style="rounded=0;whiteSpace=wrap;html=1;" vertex="1" parent="12">
                    <mxGeometry x="20" y="40" width="120" height="30" as="geometry"/>
                </mxCell>
                <mxCell id="22" style="edgeStyle=orthogonalEdgeStyle;html=1;exitX=1;exitY=0.25;exitDx=0;exitDy=0;entryX=0;entryY=0.5;entryDx=0;entryDy=0;startArrow=none;startFill=0;endArrow=classic;endFill=1;" edge="1" parent="1" source="14" target="24">
                    <mxGeometry relative="1" as="geometry">
                        <mxPoint x="410.00000000000296" y="177.5" as="targetPoint"/>
                    </mxGeometry>
                </mxCell>
                <mxCell id="25" value="Current position" style="edgeLabel;html=1;align=center;verticalAlign=middle;resizable=0;points=[];" vertex="1" connectable="0" parent="22">
                    <mxGeometry x="0.1839" y="-1" relative="1" as="geometry">
                        <mxPoint as="offset"/>
                    </mxGeometry>
                </mxCell>
                <mxCell id="14" value="Portfolio" style="swimlane;whiteSpace=wrap;html=1;" vertex="1" parent="1">
                    <mxGeometry x="100" y="220" width="200" height="130" as="geometry"/>
                </mxCell>
                <mxCell id="15" value="get_position_value" style="rounded=0;whiteSpace=wrap;html=1;" vertex="1" parent="14">
                    <mxGeometry x="45" y="40" width="120" height="30" as="geometry"/>
                </mxCell>
                <mxCell id="16" value="get_position_in_percentages" style="rounded=0;whiteSpace=wrap;html=1;" vertex="1" parent="14">
                    <mxGeometry x="20" y="80" width="170" height="30" as="geometry"/>
                </mxCell>
                <mxCell id="17" value="DataProvider" style="swimlane;whiteSpace=wrap;html=1;" vertex="1" parent="1">
                    <mxGeometry x="130" y="390" width="140" height="120" as="geometry"/>
                </mxCell>
                <mxCell id="18" value="get_value" style="rounded=0;whiteSpace=wrap;html=1;" vertex="1" parent="17">
                    <mxGeometry x="30" y="40" width="80" height="30" as="geometry"/>
                </mxCell>
                <mxCell id="31" value="get_book" style="rounded=0;whiteSpace=wrap;html=1;" vertex="1" parent="17">
                    <mxGeometry x="25" y="80" width="90" height="30" as="geometry"/>
                </mxCell>
                <mxCell id="19" style="edgeStyle=orthogonalEdgeStyle;html=1;entryX=0;entryY=0.5;entryDx=0;entryDy=0;endArrow=classic;endFill=1;startArrow=none;startFill=0;exitX=0;exitY=0.5;exitDx=0;exitDy=0;" edge="1" parent="1" source="18" target="15">
                    <mxGeometry relative="1" as="geometry">
                        <mxPoint x="50" y="450" as="sourcePoint"/>
                        <mxPoint x="-140" y="260" as="targetPoint"/>
                        <Array as="points">
                            <mxPoint x="40" y="445"/>
                            <mxPoint x="40" y="275"/>
                        </Array>
                    </mxGeometry>
                </mxCell>
                <mxCell id="20" value="Symbol value" style="edgeLabel;html=1;align=center;verticalAlign=middle;resizable=0;points=[];" vertex="1" connectable="0" parent="19">
                    <mxGeometry x="0.1277" y="-1" relative="1" as="geometry">
                        <mxPoint as="offset"/>
                    </mxGeometry>
                </mxCell>
                <mxCell id="27" style="edgeStyle=orthogonalEdgeStyle;html=1;exitX=0.25;exitY=0;exitDx=0;exitDy=0;startArrow=none;startFill=0;endArrow=classic;endFill=1;entryX=0;entryY=0.5;entryDx=0;entryDy=0;" edge="1" parent="1" source="24" target="12">
                    <mxGeometry relative="1" as="geometry">
                        <mxPoint x="460" y="130" as="targetPoint"/>
                        <Array as="points">
                            <mxPoint x="460" y="150"/>
                            <mxPoint x="370" y="150"/>
                            <mxPoint x="370" y="75"/>
                        </Array>
                    </mxGeometry>
                </mxCell>
                <mxCell id="28" value="Position today" style="edgeLabel;html=1;align=center;verticalAlign=middle;resizable=0;points=[];" vertex="1" connectable="0" parent="27">
                    <mxGeometry x="-0.255" y="1" relative="1" as="geometry">
                        <mxPoint x="-5" y="-11" as="offset"/>
                    </mxGeometry>
                </mxCell>
                <mxCell id="34" style="edgeStyle=orthogonalEdgeStyle;html=1;exitX=0.5;exitY=1;exitDx=0;exitDy=0;entryX=0.5;entryY=0;entryDx=0;entryDy=0;startArrow=none;startFill=0;endArrow=classic;endFill=1;" edge="1" parent="1" source="24" target="32">
                    <mxGeometry relative="1" as="geometry"/>
                </mxCell>
                <mxCell id="35" value="Planned position (%)" style="edgeLabel;html=1;align=center;verticalAlign=middle;resizable=0;points=[];" vertex="1" connectable="0" parent="34">
                    <mxGeometry x="-0.2652" relative="1" as="geometry">
                        <mxPoint as="offset"/>
                    </mxGeometry>
                </mxCell>
                <mxCell id="24" value="Execute strategy" style="rounded=0;whiteSpace=wrap;html=1;" vertex="1" parent="1">
                    <mxGeometry x="430" y="200" width="120" height="30" as="geometry"/>
                </mxCell>
                <mxCell id="29" style="edgeStyle=orthogonalEdgeStyle;html=1;startArrow=none;startFill=0;endArrow=classic;endFill=1;entryX=0.75;entryY=0;entryDx=0;entryDy=0;exitX=1;exitY=0.5;exitDx=0;exitDy=0;" edge="1" parent="1" source="12" target="24">
                    <mxGeometry relative="1" as="geometry">
                        <mxPoint x="520" y="130" as="sourcePoint"/>
                        <mxPoint x="700" y="130" as="targetPoint"/>
                        <Array as="points">
                            <mxPoint x="640" y="75"/>
                            <mxPoint x="640" y="150"/>
                            <mxPoint x="520" y="150"/>
                        </Array>
                    </mxGeometry>
                </mxCell>
                <mxCell id="30" value="Planned position (%)" style="edgeLabel;html=1;align=center;verticalAlign=middle;resizable=0;points=[];" vertex="1" connectable="0" parent="29">
                    <mxGeometry x="-0.255" y="1" relative="1" as="geometry">
                        <mxPoint x="-61" y="18" as="offset"/>
                    </mxGeometry>
                </mxCell>
                <mxCell id="36" style="edgeStyle=orthogonalEdgeStyle;html=1;exitX=0.5;exitY=1;exitDx=0;exitDy=0;entryX=0.5;entryY=0;entryDx=0;entryDy=0;startArrow=none;startFill=0;endArrow=classic;endFill=1;" edge="1" parent="1" source="32" target="33">
                    <mxGeometry relative="1" as="geometry"/>
                </mxCell>
                <mxCell id="37" value="Transactions" style="edgeLabel;html=1;align=center;verticalAlign=middle;resizable=0;points=[];" vertex="1" connectable="0" parent="36">
                    <mxGeometry x="-0.3049" relative="1" as="geometry">
                        <mxPoint as="offset"/>
                    </mxGeometry>
                </mxCell>
                <mxCell id="32" value="Compute trasactions" style="rounded=0;whiteSpace=wrap;html=1;" vertex="1" parent="1">
                    <mxGeometry x="420" y="290" width="140" height="30" as="geometry"/>
                </mxCell>
                <mxCell id="38" style="edgeStyle=orthogonalEdgeStyle;html=1;exitX=0.5;exitY=1;exitDx=0;exitDy=0;entryX=1;entryY=0.5;entryDx=0;entryDy=0;startArrow=none;startFill=0;endArrow=classic;endFill=1;" edge="1" parent="1" source="33" target="14">
                    <mxGeometry relative="1" as="geometry">
                        <Array as="points">
                            <mxPoint x="490" y="430"/>
                            <mxPoint x="360" y="430"/>
                            <mxPoint x="360" y="285"/>
                        </Array>
                    </mxGeometry>
                </mxCell>
                <mxCell id="39" value="New position, costs" style="edgeLabel;html=1;align=center;verticalAlign=middle;resizable=0;points=[];" vertex="1" connectable="0" parent="38">
                    <mxGeometry x="-0.0875" relative="1" as="geometry">
                        <mxPoint y="-63" as="offset"/>
                    </mxGeometry>
                </mxCell>
                <mxCell id="45" style="edgeStyle=orthogonalEdgeStyle;html=1;exitX=1;exitY=0.5;exitDx=0;exitDy=0;entryX=1;entryY=0.5;entryDx=0;entryDy=0;startArrow=classic;startFill=1;endArrow=none;endFill=0;" edge="1" parent="1" source="33" target="31">
                    <mxGeometry relative="1" as="geometry">
                        <Array as="points">
                            <mxPoint x="580" y="385"/>
                            <mxPoint x="580" y="485"/>
                        </Array>
                    </mxGeometry>
                </mxCell>
                <mxCell id="46" value="Book prices" style="edgeLabel;html=1;align=center;verticalAlign=middle;resizable=0;points=[];" vertex="1" connectable="0" parent="45">
                    <mxGeometry x="0.1575" y="-2" relative="1" as="geometry">
                        <mxPoint as="offset"/>
                    </mxGeometry>
                </mxCell>
                <mxCell id="33" value="Simulate transactions" style="rounded=0;whiteSpace=wrap;html=1;" vertex="1" parent="1">
                    <mxGeometry x="420" y="370" width="140" height="30" as="geometry"/>
                </mxCell>
                <mxCell id="43" style="edgeStyle=orthogonalEdgeStyle;html=1;exitX=0;exitY=0.5;exitDx=0;exitDy=0;entryX=1;entryY=0.5;entryDx=0;entryDy=0;startArrow=none;startFill=0;endArrow=classic;endFill=1;" edge="1" parent="1" source="42" target="24">
                    <mxGeometry relative="1" as="geometry"/>
                </mxCell>
                <mxCell id="44" value="Today" style="edgeLabel;html=1;align=center;verticalAlign=middle;resizable=0;points=[];" vertex="1" connectable="0" parent="43">
                    <mxGeometry x="-0.2431" y="3" relative="1" as="geometry">
                        <mxPoint y="-3" as="offset"/>
                    </mxGeometry>
                </mxCell>
                <mxCell id="42" value="Iteration" style="ellipse;whiteSpace=wrap;html=1;aspect=fixed;" vertex="1" parent="1">
                    <mxGeometry x="630" y="187.5" width="55" height="55" as="geometry"/>
                </mxCell>
            </root>
        </mxGraphModel>
    </diagram>
</mxfile>